<svg width="132" height="40" viewBox="0 0 132 40" fill="none" xmlns="http://www.w3.org/2000/svg">
<g clip-path="url(#clip0_1211_1302)">
<path d="M130.525 15.2749L130.076 15.4026C130.205 17.274 130.46 19.5642 131.006 21.628L131.971 25.3383C131.998 25.4439 132.009 25.553 132.003 25.6618C132.003 26.3088 131.521 26.8231 130.591 26.8878C129.661 26.8878 129.051 25.9513 128.763 25.2704C128.089 23.7209 127.608 19.6257 127.222 17.0443L127.158 15.5886C125.586 15.718 123.854 15.9121 122.443 16.1369C121.095 16.3634 120.069 16.6529 119.869 16.7499C119.806 16.8793 118.042 20.7821 117.11 22.7165L116.694 23.5883C116.19 24.6283 115.672 25.5632 114.26 25.5632C113.554 25.4985 113.295 25.0148 113.295 24.4019C113.295 23.9506 113.616 23.2406 113.872 22.8217C114.194 22.3364 114.804 21.0797 115.54 19.6612L116.535 17.468C116.22 17.5517 115.895 17.5947 115.569 17.5958C114.895 17.5958 114.543 17.3063 114.223 16.4636C114.223 15.2069 115.51 15.008 116.853 14.9158L117.27 14.8834C117.463 14.8834 118.04 14.754 118.074 14.6263L120.004 10.7558C120.936 8.6532 121.994 6.59425 122.059 6.4972L122.282 6.11065C123.308 4.07919 125.458 0.336514 128.409 0.144043H128.635C130.11 0.144043 130.271 2.33724 130.271 3.62631V4.3687C130.271 4.49809 130.303 4.62748 130.303 5.50088C130.303 6.37428 130.142 8.01756 130.142 11.178V13.0445C130.292 13.0497 130.443 13.0388 130.591 13.0121C131.329 13.0121 131.971 13.1738 131.971 14.2041C131.969 14.7573 131.424 15.2749 130.525 15.2749ZM127.124 13.0105C127.253 11.977 127.349 9.81612 127.446 8.68717V7.817C127.446 7.36575 127.253 3.75247 127.061 3.75247C126.418 3.75247 124.648 6.97757 124.142 8.04183L123.403 9.5266C122.697 10.9451 121.993 12.4298 121.383 14.01C122.026 13.9453 122.57 13.8483 123.21 13.7513L123.917 13.6542C124.848 13.5264 126.169 13.3 127.094 13.2677C127.094 13.1771 127.129 13.1124 127.129 13.017L127.124 13.0105Z" fill="#5E6C84"/>
<path d="M114.512 4.16494C114.153 3.63803 113.75 3.14194 113.309 2.68178C112.549 1.88201 111.65 1.22959 110.655 0.757069C108.816 -0.09692 106.738 -0.182644 104.783 0.279933C100.463 1.2989 96.0469 0.936603 91.6473 0.330077C92.331 2.94057 93.2559 4.98334 92.2715 7.62456C90.6489 7.62456 89.9518 8.71954 90.1802 10.9095C90.2165 11.7292 90.1998 12.5504 90.1304 13.368C89.7282 17.6929 88.5732 16.1806 87.1833 18.61C86.379 20.0252 85.6085 23.2584 84.9168 24.9356C87.1595 24.514 89.4271 24.239 91.7052 24.1124C94.0187 24.0213 96.3356 24.1589 98.6223 24.5232C98.3947 24.1574 98.1193 23.824 97.8036 23.5317C97.321 22.8686 94.7472 19.409 95.4936 18.2865C96.0083 17.5085 97.4239 17.0751 98.5355 17.2934C98.9296 17.371 99.1355 17.5603 99.1371 17.7786C99.1725 18.3949 99.4717 19.6225 100.049 21.3968C100.854 23.8407 102.666 25.4661 104.277 25.6344C105.593 25.7702 107.079 25.264 108.223 24.1949C109.432 23.0627 110.055 21.5245 110.089 20.4053C110.119 19.3993 109.91 18.8752 109.354 19.0111C109.315 19.0289 109.111 19.134 108.739 19.3346C108.19 19.5827 107.613 19.763 107.021 19.8715C106.82 19.8166 103.373 18.8768 105.239 16.8761C105.43 16.6707 106.278 16.3682 107.999 16.0674C109.569 15.7957 111.141 14.8026 112.395 12.9232C113.095 11.8735 112.859 10.6766 113.372 9.64146C113.508 9.36966 113.688 9.12257 113.904 8.9104C114.398 8.42518 115.109 8.14052 115.376 7.45474C115.849 6.25139 115.177 5.12729 114.512 4.16494ZM88.282 20.2419L88.1887 20.512C88.1613 20.5916 88.1097 20.6606 88.0414 20.7093C87.973 20.758 87.8913 20.784 87.8075 20.7838C87.7627 20.784 87.7181 20.7769 87.6756 20.7627C87.6254 20.7454 87.5793 20.7182 87.5397 20.6826C87.5002 20.647 87.4682 20.6039 87.4455 20.5557C87.3991 20.4592 87.3922 20.3483 87.4262 20.2468L87.5196 19.9767C87.5577 19.8792 87.6318 19.8003 87.7264 19.7564C87.8211 19.7126 87.9289 19.7073 88.0273 19.7415C88.1258 19.7758 88.2073 19.847 88.2548 19.9402C88.3022 20.0335 88.312 20.1416 88.282 20.2419ZM89.9486 18.0698C89.621 18.2236 89.3286 18.4439 89.0896 18.7167C88.9719 18.8563 88.8695 19.0081 88.7839 19.1696C88.733 19.264 88.6468 19.3341 88.5443 19.3646C88.4419 19.3951 88.3317 19.3834 88.2378 19.3321C88.1439 19.2809 88.0742 19.1942 88.0439 19.0912C88.0135 18.9883 88.0251 18.8774 88.0761 18.783C88.19 18.5694 88.3265 18.3688 88.4831 18.1846C88.7952 17.8238 89.1787 17.5324 89.6092 17.329C89.706 17.2837 89.8168 17.279 89.9171 17.3159C90.0174 17.3527 90.099 17.4281 90.144 17.5255C90.1891 17.6229 90.1937 17.7342 90.1571 17.8351C90.1204 17.9359 90.0454 18.018 89.9486 18.0633V18.0698ZM93.4072 9.19183C93.3641 9.29014 93.2841 9.3673 93.1846 9.40641C93.0851 9.44551 92.9742 9.44338 92.8763 9.40047C92.6994 9.32122 92.0511 9.23873 91.8468 9.64146C91.824 9.69148 91.7914 9.73632 91.7508 9.77326C91.7103 9.81021 91.6627 9.83849 91.611 9.85638C91.5593 9.87428 91.5045 9.88141 91.4499 9.87736C91.3953 9.87331 91.3422 9.85816 91.2936 9.83282C91.2451 9.80747 91.2021 9.77247 91.1674 9.72994C91.1328 9.68741 91.107 9.63823 91.0918 9.5854C91.0766 9.53256 91.0722 9.47717 91.0789 9.42258C91.0857 9.36799 91.1034 9.31535 91.1309 9.26785C91.5797 8.40253 92.7187 8.44621 93.2013 8.65809C93.2498 8.67944 93.2935 8.71033 93.33 8.74894C93.3665 8.78755 93.3949 8.83309 93.4136 8.8829C93.4332 8.93218 93.4428 8.98494 93.4417 9.03802C93.4406 9.0911 93.4288 9.14342 93.4072 9.19183ZM106.437 23.2147C107.402 22.6147 108.083 21.7218 108.287 20.7676C108.298 20.7151 108.319 20.6653 108.35 20.6212C108.38 20.577 108.419 20.5393 108.464 20.5103C108.508 20.4813 108.559 20.4615 108.611 20.4521C108.664 20.4426 108.718 20.4438 108.77 20.4554C108.875 20.4786 108.966 20.5428 109.024 20.6338C109.082 20.7248 109.101 20.8351 109.078 20.9406C108.829 22.1116 108.02 23.1921 106.863 23.907C106.8 23.947 106.727 23.9683 106.653 23.9684C106.565 23.969 106.479 23.9406 106.408 23.8874C106.338 23.8342 106.287 23.7592 106.263 23.6739C106.239 23.5887 106.243 23.4979 106.276 23.4155C106.308 23.3332 106.367 23.2637 106.442 23.218L106.437 23.2147ZM106.878 7.97069C106.494 8.40788 106.075 8.81203 105.625 9.17889C105.266 9.49267 105.303 10.0393 104.991 10.5521C104.774 10.9236 104.503 11.2605 104.187 11.5516C103.99 11.7483 103.768 11.9165 103.525 12.0514C101.87 13.0687 99.9865 13.2159 98.3666 11.956C97.8814 11.4923 97.5329 10.9029 97.3596 10.2528C97.2711 9.89216 97.1714 9.44414 97.3757 9.2824C100.271 7.60192 103.167 6.79807 106.175 7.03744C106.944 7.12802 107.275 7.39166 106.871 7.97069H106.878ZM111.149 12.8941L111.139 12.9086C110.891 13.2742 110.233 14.2478 109.058 14.6263C109.018 14.6379 108.977 14.6439 108.935 14.6441C108.839 14.6451 108.745 14.6111 108.671 14.5483C108.597 14.4854 108.548 14.3979 108.534 14.3019C108.519 14.2058 108.539 14.1075 108.59 14.0251C108.641 13.9427 108.721 13.8817 108.813 13.8532C109.724 13.5621 110.25 12.7841 110.473 12.4525L110.483 12.4396C110.527 12.3731 110.591 12.3214 110.665 12.2912C110.739 12.261 110.82 12.2535 110.898 12.2698C110.976 12.2861 111.048 12.3254 111.103 12.3827C111.159 12.44 111.197 12.5127 111.212 12.5916C111.221 12.6441 111.219 12.6979 111.207 12.7498C111.195 12.8018 111.173 12.8508 111.142 12.8941H111.149Z" fill="#5E6C84"/>
<path d="M88.1646 2.00238C88.1131 1.71933 88.0874 1.46378 88.0617 1.18073C88.0102 0.847548 87.9844 0.533772 87.9346 0.210291C87.9088 0.210291 87.9088 0.236169 87.9088 0.26043C87.8566 0.541166 87.7429 0.8067 87.576 1.03777C87.409 1.26885 87.193 1.45967 86.9437 1.59641C86.5196 1.79793 86.0566 1.90286 85.5876 1.90371C84.5858 1.90463 83.5855 1.82785 82.5955 1.67404C82.2641 1.64817 81.9311 1.59641 81.5982 1.54465C81.2652 1.49289 80.8823 1.41688 80.4994 1.36512C80.1665 1.28748 79.8093 1.23734 79.4506 1.15971L78.1637 0.928419C77.7294 0.852401 77.2693 0.748888 76.8334 0.671252L75.5818 0.441579C74.9159 0.338065 74.2258 0.236173 73.5614 0.132659L72.6911 0.0550219C72.4535 0.0262462 72.2146 0.00951228 71.9753 0.00488281H71.2852C68.5746 0.210293 66.2726 3.0084 65.7611 5.55096C65.7611 5.6011 65.7611 5.62697 65.7354 5.65285V6.08955C65.7611 6.1909 65.7783 6.29424 65.7868 6.39848C65.8336 6.68249 65.9197 6.95852 66.0426 7.2185C66.2726 7.63094 66.937 8.37495 67.4486 8.37495C67.7558 8.37495 68.0116 8.32319 68.1901 8.04176C68.7532 7.29614 69.3162 6.52625 69.8792 5.7774C69.8792 5.75152 69.9033 5.75152 69.8792 5.72564C69.8653 5.73969 69.8472 5.74878 69.8277 5.75152C69.5307 5.91254 69.1999 6.00013 68.8625 6.00706C68.4929 6.00525 68.1317 5.89503 67.8234 5.6899C67.5151 5.48477 67.273 5.19366 67.1268 4.85224C67.0473 4.709 66.9972 4.55114 66.9795 4.38804C66.9618 4.22495 66.9769 4.05994 67.0239 3.90283C67.2539 2.87578 68.0727 2.61861 68.9928 2.61861L69.683 2.69624C69.9902 2.7205 70.2717 2.77226 70.5532 2.79814L71.5184 2.95988L72.7458 3.19116L72.8632 3.21219V20.5524C72.557 20.4573 72.2432 20.3886 71.9254 20.347C71.1838 20.347 70.5709 20.5524 70.0851 21.1427C69.9432 21.2929 69.8145 21.4553 69.7007 21.628L68.3977 23.6303C68.7548 23.2712 69.1392 22.9364 69.6251 22.7828C69.7244 22.753 69.8271 22.7356 69.9307 22.731C70.0745 22.7252 70.2169 22.7612 70.3409 22.8345L70.7237 22.9963C71.4138 23.2793 72.0798 23.6125 72.7442 23.9214C73.2863 24.1705 73.8091 24.4406 74.3641 24.6768L74.6118 24.7786C75.8392 25.293 76.991 25.7038 78.3197 25.7491C78.8313 25.7491 79.19 25.6197 79.4973 25.183L80.945 22.9769C80.0237 23.0168 79.101 22.9473 78.1959 22.7698C77.8214 22.6865 77.4536 22.5751 77.0956 22.4367C77.036 22.4205 77.0264 22.4027 77.0457 22.3849L77.2243 22.2054C77.583 21.8204 77.9401 21.4355 78.323 21.0505L79.3461 19.9458C79.3558 19.9356 79.3632 19.9234 79.3676 19.9099C79.3721 19.8965 79.3735 19.8823 79.3718 19.8682V4.5692C79.3718 4.4673 79.3718 4.4673 79.4747 4.49318L80.3949 4.64683L81.1622 4.7746C81.5193 4.83607 81.878 4.89429 82.2368 4.94443V14.1151L80.8003 15.5514L82.4089 17.1688L84.0175 15.5514L82.5875 14.1151V4.99295C83.161 5.06674 83.7385 5.10562 84.3167 5.10941H84.5468C84.7269 5.10941 84.8798 5.13529 85.0294 5.13529C86.2326 5.13529 87.6386 4.95575 88.1501 3.69741C88.1995 3.59276 88.2253 3.47845 88.2257 3.36261V2.97767C88.2161 2.64449 88.1904 2.33556 88.1646 2.00238ZM78.3181 4.31041L77.398 5.23395C76.9894 5.67065 76.5551 6.10735 76.1449 6.54404C76.126 6.55901 76.1113 6.57866 76.1023 6.60107C76.0932 6.62348 76.0902 6.64786 76.0934 6.67182V21.9466C76.0934 21.9466 76.0934 22.0032 76.0435 21.9854C76.0288 21.9762 76.0132 21.9686 75.9969 21.9628C75.4419 21.7088 74.911 21.4306 74.3561 21.1767L74.3303 21.1638C73.9757 20.9733 73.608 20.8084 73.23 20.6705V3.27042L74.0247 3.41437C74.5362 3.51788 75.0478 3.61978 75.5851 3.72329C76.0676 3.82519 76.5502 3.9287 77.0425 4.00472C77.3996 4.08235 77.7841 4.15838 78.1412 4.23601C78.2184 4.23601 78.2699 4.26189 78.3455 4.26189C78.3417 4.28055 78.3321 4.29753 78.3181 4.31041Z" fill="#5E6C84"/>
<path d="M57.2466 0.151855L55.6315 1.77249L57.2466 3.39313L58.8617 1.77249L57.2466 0.151855Z" fill="#5E6C84"/>
<path d="M57.1887 17.0083L55.5736 18.6289L57.1887 20.2496L58.8021 18.6289L57.1887 17.0083Z" fill="#5E6C84"/>
<path d="M60.2998 0.146973V9.36617H60.0955C57.5217 6.81391 54.5457 4.7032 54.0776 1.50559V0.148587H51.1273V25.7861H54.0776V7.752H54.3124C56.4149 10.128 59.074 11.9459 60.2998 14.3219V25.7861H63.5717V0.146973H60.2998Z" fill="#5E6C84"/>
<path d="M45.6258 4.32173C43.4702 1.9393 40.668 0.473925 37.7435 0.194114C34.7385 -0.0905487 31.814 0.90739 29.5105 3.01001C28.4535 3.96701 27.5905 5.12033 26.9688 6.40656L26.9591 6.42759C26.9564 6.43508 26.9526 6.44216 26.9479 6.44862L26.9382 6.47126L26.9286 6.49228C26.9255 6.49961 26.9217 6.50665 26.9173 6.51331L26.9077 6.53434L26.898 6.55536C26.8949 6.56322 26.8912 6.5708 26.8868 6.57801L26.8771 6.59903L26.8675 6.62006C26.8647 6.62755 26.8609 6.63463 26.8562 6.64109L26.8465 6.66373L26.8369 6.68476C26.8338 6.69209 26.83 6.69912 26.8256 6.70578L26.816 6.72681L26.8063 6.74945L26.7967 6.77048C26.7923 6.77714 26.7885 6.78417 26.7854 6.7915L26.7758 6.81253L26.7645 6.83517L26.7549 6.8562L26.7452 6.87723C26.7421 6.88456 26.7383 6.89159 26.7339 6.89825L26.7243 6.91928L26.7146 6.94192C26.7115 6.94925 26.7077 6.95629 26.7034 6.96295L26.6937 6.98398L26.6841 7.005L26.6728 7.02764L26.6632 7.04867L26.6535 7.0697C26.6504 7.07703 26.6466 7.08407 26.6422 7.09072L26.6326 7.11337L26.6229 7.13439C26.6198 7.14172 26.6161 7.14876 26.6117 7.15542L26.602 7.17645L26.5924 7.19747C26.5893 7.20533 26.5855 7.21291 26.5811 7.22012L26.5715 7.24114L26.5618 7.26217C26.559 7.26966 26.5552 7.27674 26.5506 7.2832L26.5409 7.30584L26.5313 7.32686C26.5281 7.3342 26.5244 7.34123 26.52 7.34789L26.5103 7.36892L26.5007 7.39156L26.4894 7.41259L26.4798 7.43361L26.4701 7.45464L26.4605 7.47567L26.4492 7.49831L26.4396 7.51934C26.4364 7.52667 26.4327 7.5337 26.4283 7.54036L26.4186 7.56139L26.409 7.58403L26.3977 7.60506L26.3881 7.62609L26.3784 7.64711C26.3753 7.65497 26.3716 7.66254 26.3672 7.66975L26.3575 7.69078L26.3479 7.71181C26.3447 7.71914 26.341 7.72618 26.3366 7.73283L26.327 7.75386L26.3173 7.7765C26.3142 7.78383 26.3104 7.79087 26.306 7.79753L26.2964 7.81856L26.2867 7.83958L26.2771 7.86222C26.2724 7.86868 26.2686 7.87576 26.2658 7.88325L26.2562 7.90428C26.253 7.91161 26.2493 7.91865 26.2449 7.92531L26.2353 7.94795L26.2256 7.96897C26.2225 7.97631 26.2187 7.98334 26.2144 7.99L26.2047 8.01103L26.195 8.03205L26.1854 8.0547C26.1807 8.06115 26.1769 8.06823 26.1741 8.07572L26.1645 8.09675C26.1617 8.10424 26.1579 8.11132 26.1532 8.11778L26.1436 8.14042L26.1339 8.16145C26.1308 8.16878 26.127 8.17581 26.1227 8.18247L26.113 8.2035L26.1034 8.22614L26.0937 8.24717C26.0893 8.25383 26.0856 8.26086 26.0824 8.26819L26.0728 8.28922C26.07 8.29672 26.0662 8.30379 26.0615 8.31025L26.0519 8.33289L26.0422 8.35392C26.0391 8.36125 26.0353 8.36829 26.031 8.37494L26.0213 8.39597L26.0117 8.41861L26.002 8.43964C25.9976 8.4463 25.9939 8.45333 25.9907 8.46067L25.9811 8.48169L25.9714 8.50272C25.9671 8.50993 25.9633 8.5175 25.9602 8.52536L25.9505 8.54639C25.9474 8.55372 25.9436 8.56076 25.9393 8.56742L25.9296 8.58844L25.92 8.61108L25.9103 8.63211C25.9059 8.63877 25.9022 8.64581 25.8991 8.65314L25.8894 8.67416L25.8798 8.69681C25.8751 8.70326 25.8713 8.71034 25.8685 8.71783L25.8588 8.73886C25.8557 8.74619 25.8519 8.75323 25.8476 8.75989L25.8379 8.78253L25.8283 8.80355L25.8186 8.82458C25.8143 8.83124 25.8105 8.83828 25.8074 8.84561L25.7977 8.86664L25.7881 8.88928C25.7837 8.89594 25.7799 8.90297 25.7768 8.9103L25.7671 8.93133L25.7575 8.95236L25.7462 8.975L25.7366 8.99603C25.7335 9.00336 25.7297 9.0104 25.7253 9.01705L25.7157 9.03808L25.706 9.06072L25.6964 9.08175C25.692 9.08841 25.6882 9.09544 25.6851 9.10278L25.6755 9.1238C25.6727 9.1313 25.6689 9.13837 25.6642 9.14483L25.6545 9.16747L25.6449 9.1885L25.6352 9.20952L25.624 9.23055L25.6143 9.25319L25.6031 9.27422L25.5934 9.29525L25.5838 9.31627L25.5741 9.33891C25.5694 9.34537 25.5656 9.35245 25.5628 9.35994L25.5532 9.38097L25.5435 9.402L25.5323 9.42302L25.5226 9.44566C25.5195 9.453 25.5157 9.46003 25.5114 9.46669L25.5017 9.48772L25.4921 9.50875L25.4824 9.53139C25.4777 9.53784 25.4739 9.54492 25.4712 9.55241L25.4615 9.57344C25.4584 9.58077 25.4546 9.58781 25.4502 9.59447L25.4406 9.61711L25.4309 9.63814L25.4213 9.65916C25.4169 9.66582 25.4132 9.67286 25.41 9.68019L25.4004 9.70121L25.3907 9.72386C25.3864 9.73052 25.3826 9.73755 25.3795 9.74488L25.3698 9.76591L25.3602 9.78693C25.3558 9.79414 25.352 9.80172 25.3489 9.80958L25.3393 9.83061L25.3296 9.85163C25.3252 9.85829 25.3215 9.86533 25.3183 9.87266L25.3087 9.8953L25.299 9.91633C25.2947 9.92299 25.2909 9.93003 25.2878 9.93736L25.2781 9.95838L25.2685 9.97941C25.2641 9.98661 25.2603 9.99419 25.2572 10.0021L25.2476 10.0231L25.2379 10.0441L25.2266 10.0651L25.217 10.0878L25.2073 10.1088C25.203 10.1155 25.1992 10.1225 25.1961 10.1298L25.1864 10.1508L25.1768 10.1735C25.1721 10.18 25.1683 10.187 25.1655 10.1945L25.1559 10.2155L25.1462 10.2366L25.135 10.2576L25.1253 10.2802C25.1222 10.2876 25.1184 10.2946 25.114 10.3013L25.1044 10.3223L25.0947 10.3433L25.0851 10.366C25.0804 10.3724 25.0766 10.3795 25.0738 10.387L25.0642 10.408L25.0545 10.429L25.0433 10.4517L25.0336 10.4727L25.024 10.4937C25.0196 10.5004 25.0158 10.5074 25.0127 10.5148L25.003 10.5358L24.9934 10.5584C24.9887 10.5649 24.9849 10.572 24.9821 10.5795L24.9725 10.6005L24.9628 10.6215L24.9516 10.6442L24.9419 10.6652L24.9323 10.6862C24.3197 11.9532 24.0018 13.3436 24.0025 14.7524C24.0025 17.3726 25.0497 19.9782 26.9591 22.0889C28.8686 24.1996 31.3507 25.4984 33.9503 25.7459C34.2495 25.775 34.5471 25.7895 34.8431 25.7895C36.6089 25.7885 38.3381 25.2838 39.8299 24.3339L39.8492 24.3209L39.8701 24.308L39.8894 24.2967L39.9087 24.2837L39.928 24.2708L39.9489 24.2578L39.9682 24.2449L39.9875 24.232L40.0068 24.2206C40.0132 24.2154 40.0202 24.2111 40.0277 24.2077L40.047 24.1948L40.0663 24.1818L40.0856 24.1689L40.1066 24.156L40.1259 24.1446L40.1452 24.1317L40.1645 24.1187L40.1854 24.1058L40.2047 24.0929L40.224 24.0799L40.2433 24.0686L40.2642 24.0557L40.2835 24.0427L40.3028 24.0298L40.3221 24.0169C40.3296 24.0135 40.3367 24.0091 40.343 24.0039L40.3623 23.9926L40.3816 23.9796L40.4009 23.9667L40.4218 23.9538L40.4411 23.9408L40.4605 23.9279L40.4798 23.9166L40.5007 23.9036L40.52 23.8907L40.5393 23.8778L40.5586 23.8648L40.5795 23.8519L40.5988 23.8406L40.6181 23.8276L40.6374 23.8147L40.6583 23.8017L40.6776 23.7888L40.6969 23.7775L40.7162 23.7645L40.7371 23.7516L40.7564 23.7387L40.7757 23.7257L40.795 23.7128L40.816 23.6998L40.8353 23.6885L40.8546 23.6756L40.8739 23.6626L40.8948 23.6497L40.9141 23.6368L40.9334 23.6238L40.9527 23.6125L40.9736 23.5996L40.9929 23.5866L41.0122 23.5737L41.0315 23.5607L41.0524 23.5494L41.0717 23.5365L41.091 23.5235L41.1103 23.5106L41.1313 23.4977L41.1506 23.4847L41.1699 23.4734L41.1892 23.4605L41.2101 23.4475L41.2294 23.4346L41.2487 23.4216L41.268 23.4087L41.2889 23.3974L41.3082 23.3844L41.3275 23.3715L41.3468 23.3586L41.3677 23.3456L41.387 23.3327L41.4063 23.3214L41.4256 23.3084L41.4465 23.2955L41.4659 23.2825L41.4852 23.2696L41.5045 23.2567L41.5254 23.2454L41.5447 23.2324L41.564 23.2195L41.5833 23.2065L41.6042 23.1936L41.6235 23.1807L41.6428 23.1693L41.6621 23.1564L41.683 23.1435L41.7023 23.1305L41.7216 23.1176L41.7409 23.1046L41.7618 23.0933L41.7811 23.0804L41.8004 23.0674L41.8198 23.0545C41.8273 23.0511 41.8343 23.0468 41.8407 23.0416L41.86 23.0286L41.8793 23.0173L41.8986 23.0044L41.9195 22.9914L41.9388 22.9785L41.9581 22.9655L41.9774 22.9526L41.9983 22.9413L42.0176 22.9283L42.0321 22.9105L42.0514 22.8976C42.0589 22.8943 42.0659 22.8899 42.0723 22.8847L42.0916 22.8734L42.1109 22.8604L42.1302 22.8475L42.1511 22.8345L42.1704 22.8216L42.1897 22.8087L42.209 22.7957L42.23 22.7844L42.2493 22.7715L42.2686 22.7585L42.2879 22.7456C42.2954 22.7422 42.3024 22.7379 42.3088 22.7326L42.3281 22.7213L42.3474 22.7084L42.3667 22.6954L42.3876 22.6825L42.4069 22.6696L42.4262 22.6566L42.4455 22.6453L42.4664 22.6324L42.4857 22.6194L42.505 22.6065L42.5243 22.5935C42.5319 22.5902 42.5389 22.5858 42.5452 22.5806L42.5646 22.5693L42.5839 22.5563L42.6032 22.5434L42.6241 22.5305L42.6434 22.5175L42.6627 22.5046L42.6836 22.4933L42.7029 22.4803L42.7222 22.4674L42.7415 22.4544L42.7608 22.4415C42.7683 22.4381 42.7754 22.4338 42.7817 22.4286L42.801 22.4172L42.8203 22.4043L42.8396 22.3914L42.8605 22.3784L42.8798 22.3655L42.8992 22.3525L42.9185 22.3412L42.9394 22.3283L42.9587 22.3153L42.978 22.3024L42.9973 22.2895C43.0048 22.2861 43.0118 22.2818 43.0182 22.2765L43.0375 22.2652L43.0568 22.2523L43.0761 22.2393L43.097 22.2264L43.1163 22.2134L43.1356 22.2005L43.1549 22.1892L43.1758 22.1763L43.1951 22.1633L43.2144 22.1504L43.2337 22.1374C43.2413 22.1341 43.2483 22.1297 43.2547 22.1245L43.274 22.1132L43.2933 22.1002L43.3126 22.0873L43.3335 22.0744L43.3528 22.0614L43.3721 22.0485L43.3914 22.0371L43.4123 22.0242L43.4316 22.0113L43.4509 21.9983L43.4702 21.9854L43.4911 21.9741L43.5104 21.9611L43.5297 21.9482L43.549 21.9352L43.57 21.9223L43.5893 21.9094L43.6086 21.8964L43.6279 21.8851L43.6488 21.8722L43.6681 21.8592L43.6874 21.8463L43.7067 21.8334L43.7276 21.822L43.7469 21.8091L43.7662 21.7962C44.3426 21.4342 44.8853 21.0206 45.3877 20.5605C47.6913 18.4578 48.9621 15.6339 48.9653 12.6012C48.9669 9.64784 47.7814 6.70417 45.6258 4.32173ZM27.3275 7.8687C29.0307 6.28834 31.2627 5.40964 33.5803 5.40701C36.3263 5.40701 39.1156 6.62815 41.276 9.01381C45.0258 13.1608 45.1078 18.88 41.572 22.5774C37.5038 24.012 32.7969 22.7925 29.4381 19.0805C27.3243 16.7434 26.1613 13.8596 26.1645 10.9628C26.1661 10.2563 26.2388 9.55187 26.3816 8.86016C26.6747 8.50894 26.9907 8.17772 27.3275 7.8687Z" fill="#5E6C84"/>
<path d="M35.8356 13.1656C32.3111 10.1524 30.3566 9.1674 29.9753 9.55719C29.541 10.0004 31.0901 12.1903 34.65 15.2375C37.1997 17.4291 39.9586 19.2503 40.5682 18.6227C41.0669 18.1181 38.5413 15.4704 35.8356 13.1656Z" fill="#5E6C84"/>
<path d="M20.6678 15.6166C20.0677 15.699 19.5787 15.8834 19.2441 16.3525C18.8468 16.9105 18.5894 17.5542 18.1937 18.1122C17.8011 18.6664 17.2468 19.0841 16.6076 19.3075C15.9733 19.5218 15.2927 19.5566 14.6401 19.4079C13.9875 19.2593 13.3882 18.933 12.9077 18.4648C12.8353 18.3969 12.7661 18.3241 12.6986 18.2497C12.4907 18.0202 12.3069 17.7698 12.15 17.5024C12.102 17.3902 12.0449 17.282 11.9795 17.179C9.78212 15.8705 7.75202 14.0266 7.18095 11.4145C7.00543 10.5451 6.90585 9.66184 6.88335 8.77494C6.88335 8.77494 6.6131 8.63745 6.48441 8.55982C5.75731 8.12797 6.26081 7.23355 6.82544 7.37426C6.88335 7.38882 6.94127 7.40014 6.99596 7.40823C6.83741 7.33505 6.68831 7.24272 6.55198 7.13327C5.92943 6.61732 6.5745 5.81994 7.13591 6.00109C7.21474 6.02535 7.28712 6.06093 7.35951 6.08519C7.26879 6.00149 7.18488 5.91062 7.10856 5.81347C6.49889 5.04035 7.4496 4.33516 8.01262 4.75731C8.04157 4.77995 8.07214 4.80097 8.10109 4.82038C8.05532 4.73384 8.0145 4.64474 7.97884 4.55351C7.56542 3.51352 8.82659 3.0558 9.30274 3.6979C9.36387 3.77877 9.42661 3.85964 9.48935 3.92434C9.40892 3.40839 9.42822 2.79216 9.74351 2.3781C9.84433 2.24158 9.97522 2.13038 10.1259 2.05321C10.2766 1.97604 10.4431 1.93501 10.6122 1.93332C10.7878 1.93193 10.9613 1.97187 11.1188 2.04995C11.2764 2.12802 11.4136 2.24206 11.5194 2.38295C11.7109 2.65953 11.7221 3.01051 11.7736 3.33076C11.8203 3.59356 11.9037 3.8484 12.0213 4.0877C12.1077 4.28054 12.2157 4.46287 12.3431 4.63115C12.84 5.0109 13.2846 5.45525 13.6654 5.95256C14.608 7.16077 15.2241 8.61481 15.7389 10.0317C15.9802 10.698 16.2215 11.3951 16.6896 11.9402C17.7561 13.1824 19.8393 13.2487 20.9927 12.0777C21.3144 11.7542 21.427 11.2771 21.5316 10.8468C21.8726 9.44616 21.6201 6.80332 21.2099 5.44146C19.9889 1.39796 15.3464 0.160645 11.6015 0.160645C8.11396 0.160645 5.30689 1.33326 3.18027 3.6785C1.05365 6.02373 -0.0101929 8.9825 -0.0112653 12.5548C-0.0289845 14.7877 0.472867 16.9938 1.4542 18.9969C2.41637 20.9615 3.88588 22.6301 5.70905 23.8281C6.45793 24.3153 7.26555 24.7044 8.11235 24.9862C11.1849 26.0035 14.7705 25.6056 17.6146 24.0934C20.3493 22.6377 21.8179 19.8218 21.8179 16.7568C21.8292 16.0969 21.3563 15.5227 20.6678 15.6166Z" fill="#5E6C84"/>
<path d="M26.3865 39.999C26.0194 40.0058 25.6556 39.9298 25.3215 39.7767C24.9875 39.6236 24.6918 39.3973 24.4561 39.1143C23.9523 38.5437 23.6802 37.8037 23.6936 37.0408C23.6669 36.3015 23.9258 35.5805 24.4159 35.0288C24.6553 34.7666 24.9484 34.5597 25.275 34.4223C25.6016 34.2849 25.9539 34.2203 26.3077 34.233C26.8762 34.2184 27.4362 34.3744 27.9163 34.681C28.3667 34.9786 28.5919 35.3328 28.5919 35.7437C28.5952 35.8271 28.5811 35.9103 28.5507 35.988C28.5202 36.0657 28.474 36.1362 28.415 36.1949C28.3507 36.2557 28.2747 36.3026 28.1917 36.3327C28.1087 36.3627 28.0204 36.3753 27.9324 36.3696C27.758 36.3715 27.5881 36.3146 27.4498 36.2079C27.309 36.1006 27.1899 35.9672 27.0991 35.8148C27.0074 35.6628 26.9141 35.5091 26.8208 35.3522C26.73 35.2019 26.6141 35.0684 26.4782 34.9576C26.3485 34.851 26.1856 34.7937 26.0181 34.7959C25.8843 34.7979 25.7531 34.8329 25.6359 34.8977C25.5186 34.9626 25.419 35.0553 25.3457 35.1679C25.1446 35.4624 25.0462 35.8156 25.0658 36.1723C25.0658 36.9141 25.2443 37.5244 25.6015 38.0032C25.9586 38.4819 26.3699 38.7202 26.8353 38.7181C26.9996 38.7211 27.1631 38.6943 27.3179 38.6388C27.4593 38.5885 27.5902 38.5123 27.7039 38.414C27.7977 38.3361 27.8843 38.2501 27.9629 38.1568C28.0241 38.0824 28.0932 37.9951 28.1721 37.8802C28.2027 37.8381 28.2457 37.8066 28.2951 37.7904C28.3444 37.7741 28.3976 37.7739 28.4471 37.7897C28.4986 37.8003 28.544 37.8304 28.574 37.8737C28.6039 37.9171 28.6161 37.9704 28.608 38.0226C28.5958 38.5498 28.3801 39.0516 28.0064 39.4216C27.6235 39.8066 27.0835 39.999 26.3865 39.999Z" fill="#5E6C84"/>
<path d="M35.0474 39.0567C35.1091 39.2048 35.2012 39.3382 35.3176 39.4481C35.4415 39.5678 35.5026 39.6632 35.5026 39.7376V39.77C35.5026 39.8687 35.4399 39.9188 35.3144 39.9188H33.2779C33.1556 39.9188 33.0961 39.8687 33.0961 39.77V39.7312C33.1011 39.6939 33.1139 39.658 33.1335 39.626C33.1532 39.5939 33.1794 39.5664 33.2103 39.5452C33.284 39.481 33.3499 39.4082 33.4066 39.3284C33.4338 39.288 33.4506 39.2414 33.4554 39.1928C33.4602 39.1443 33.4528 39.0952 33.4339 39.0502L33.2618 38.565H31.2639L31.0901 39.0502C31.0713 39.0952 31.0639 39.1443 31.0686 39.1928C31.0734 39.2414 31.0902 39.288 31.1175 39.3284C31.1741 39.4082 31.24 39.481 31.3137 39.5452C31.3449 39.5662 31.3712 39.5936 31.3909 39.6257C31.4106 39.6578 31.4232 39.6938 31.4279 39.7312V39.7635C31.4279 39.8622 31.3652 39.9123 31.2397 39.9123H30.0751C29.9496 39.9123 29.8869 39.8622 29.8869 39.7635V39.7312C29.8869 39.6632 29.948 39.5694 30.0719 39.4465C30.1883 39.3343 30.2808 39.1995 30.3437 39.0502L31.814 35.2235C31.8316 35.1786 31.8391 35.1303 31.8357 35.0822C31.8324 35.034 31.8184 34.9873 31.7947 34.9453C31.7448 34.8508 31.6866 34.761 31.621 34.6768C31.5692 34.6225 31.535 34.5537 31.5229 34.4795V34.4471C31.5229 34.3485 31.5824 34.2967 31.7046 34.2967H32.71C32.8293 34.2926 32.9467 34.3274 33.0447 34.3959C33.1427 34.4644 33.216 34.563 33.2537 34.6768L35.0474 39.0567ZM31.4762 37.9731H33.0495L32.2628 35.7669L31.4762 37.9731Z" fill="#5E6C84"/>
<path d="M39.0754 39.9982C38.4751 40.0218 37.881 39.8677 37.367 39.555C36.9166 39.2606 36.6914 38.9285 36.6914 38.5587C36.6914 38.1888 36.8802 38.0018 37.2577 37.9974C37.4067 37.9984 37.5499 38.0562 37.6582 38.1592C37.7757 38.2655 37.8742 38.3913 37.9494 38.5312C38.0282 38.6768 38.1102 38.8223 38.2019 38.9663C38.2952 39.1164 38.4218 39.2426 38.5719 39.335C38.7395 39.4385 38.9335 39.4907 39.1301 39.4854C39.3276 39.4968 39.5223 39.4346 39.677 39.3108C39.7445 39.2502 39.7975 39.1752 39.832 39.0911C39.8666 39.0071 39.8818 38.9163 39.8765 38.8256C39.8818 38.638 39.8221 38.4545 39.7076 38.3064C39.59 38.1631 39.4384 38.0519 39.2668 37.9829C39.0711 37.9011 38.8701 37.8324 38.6652 37.7775C38.4443 37.716 38.2239 37.6448 38.0041 37.564C37.7934 37.4857 37.5917 37.3848 37.4024 37.2631C37.2123 37.1336 37.0592 36.9563 36.9584 36.7488C36.8359 36.4975 36.7762 36.2199 36.7847 35.9401C36.7788 35.7029 36.8284 35.4676 36.9296 35.2533C37.0307 35.0389 37.1806 34.8515 37.367 34.706C37.7563 34.389 38.2732 34.2305 38.9178 34.2305C39.4846 34.2121 40.0441 34.3624 40.5264 34.6624C40.964 34.9502 41.1784 35.2786 41.1699 35.6474C41.1741 35.7245 41.1627 35.8016 41.1365 35.8742C41.1102 35.9467 41.0696 36.0132 41.017 36.0695C40.9577 36.1252 40.8878 36.1682 40.8115 36.196C40.7352 36.2238 40.6541 36.2358 40.5731 36.2312C40.4113 36.2339 40.2543 36.1763 40.1323 36.0695C40.0122 35.9684 39.9141 35.8434 39.8443 35.7024L39.632 35.2721C39.563 35.1283 39.4637 35.0013 39.3408 34.9001C39.2148 34.7927 39.054 34.7352 38.8888 34.7384C38.79 34.7316 38.691 34.7454 38.5977 34.7788C38.5044 34.8122 38.419 34.8645 38.3467 34.9325C38.283 34.9991 38.2333 35.078 38.2007 35.1645C38.1681 35.2509 38.1532 35.3431 38.1569 35.4355C38.1514 35.6415 38.213 35.8437 38.3322 36.0113C38.4461 36.1674 38.5978 36.2916 38.773 36.3719C38.968 36.461 39.1691 36.5361 39.3746 36.5968C39.595 36.6631 39.8138 36.7359 40.0326 36.8151C40.2413 36.8891 40.4414 36.9856 40.6294 37.103C40.8168 37.2222 40.969 37.3898 41.0701 37.5882C41.189 37.8257 41.247 38.0892 41.239 38.3549C41.2448 38.5908 41.1905 38.8244 41.0813 39.0333C40.972 39.2422 40.8115 39.4196 40.6149 39.5485C40.1616 39.8576 39.6228 40.015 39.0754 39.9982Z" fill="#5E6C84"/>
<path d="M47.7202 39.0572C47.7819 39.2053 47.874 39.3387 47.9905 39.4486C48.1143 39.5683 48.1755 39.6637 48.1755 39.7381V39.7704C48.1755 39.8691 48.1127 39.9192 47.9873 39.9192H45.9491C45.8285 39.9192 45.769 39.8691 45.769 39.7704V39.7316C45.774 39.6943 45.7867 39.6585 45.8064 39.6264C45.8261 39.5944 45.8522 39.5668 45.8832 39.5456C45.9569 39.4814 46.0227 39.4087 46.0794 39.3289C46.1067 39.2885 46.1235 39.2419 46.1283 39.1933C46.133 39.1447 46.1256 39.0957 46.1068 39.0507L45.9346 38.5655H43.9367L43.763 39.0507C43.7441 39.0957 43.7367 39.1447 43.7415 39.1933C43.7463 39.2419 43.7631 39.2885 43.7903 39.3289C43.847 39.4087 43.9129 39.4814 43.9866 39.5456C44.0177 39.5666 44.0441 39.5941 44.0638 39.6262C44.0835 39.6583 44.0961 39.6942 44.1008 39.7316V39.764C44.1008 39.8626 44.0381 39.9128 43.9126 39.9128H42.7479C42.6225 39.9128 42.5597 39.8626 42.5597 39.764V39.7316C42.5597 39.6637 42.6209 39.5699 42.7447 39.447C42.8611 39.3351 42.9532 39.2002 43.015 39.0507L44.4869 35.2239C44.5045 35.179 44.5119 35.1308 44.5086 35.0826C44.5052 35.0345 44.4912 34.9877 44.4676 34.9457C44.4176 34.8513 44.3595 34.7614 44.2938 34.6772C44.242 34.623 44.2078 34.5542 44.1957 34.4799V34.4476C44.1957 34.3489 44.2552 34.2972 44.3759 34.2972H45.3829C45.5021 34.2934 45.6194 34.3283 45.7173 34.3967C45.8152 34.4652 45.8886 34.5636 45.9266 34.6772L47.7202 39.0572ZM44.1491 37.9735H45.7223L44.9357 35.7674L44.1491 37.9735Z" fill="#5E6C84"/>
<path d="M52.2984 39.9188C52.1713 39.9188 52.1086 39.8687 52.1086 39.77V39.7312C52.1329 39.621 52.1889 39.5203 52.2695 39.4417C52.3675 39.3345 52.4245 39.1958 52.4303 39.0503V35.1669C52.4242 35.021 52.3673 34.8819 52.2695 34.7739C52.1887 34.696 52.1328 34.5958 52.1086 34.486V34.4536C52.1086 34.355 52.1713 34.3032 52.2984 34.3032H54.1548C55.2508 34.3032 56.1039 34.5647 56.7141 35.0877C56.9967 35.3424 57.2239 35.6529 57.3817 35.9999C57.5394 36.3469 57.6242 36.7229 57.6309 37.1044C57.6375 37.4859 57.5658 37.8646 57.4203 38.217C57.2747 38.5693 57.0584 38.8877 56.7849 39.1522C56.2219 39.6633 55.476 39.9188 54.5473 39.9188H52.2984ZM54.5167 39.3657H54.8304C55.0075 39.372 55.1838 39.3392 55.347 39.2696C55.5101 39.2 55.6561 39.0954 55.7747 38.963C56.016 38.6929 56.1366 38.316 56.1366 37.8081C56.1399 37.3167 56.0599 36.8283 55.9002 36.3638C55.7672 35.9521 55.5383 35.5784 55.2326 35.2737C55.1072 35.1435 54.9572 35.0397 54.7915 34.9683C54.6258 34.897 54.4477 34.8595 54.2674 34.858H54.1805C53.9457 34.858 53.8266 34.9841 53.8266 35.2381V38.5505C53.8134 38.7665 53.8779 38.9801 54.0084 39.1522C54.0713 39.2244 54.1498 39.2812 54.238 39.3182C54.3261 39.3552 54.4214 39.3715 54.5167 39.3657Z" fill="#5E6C84"/>
<path d="M59.4794 39.9188C59.3539 39.9188 59.2912 39.8686 59.2912 39.77V39.7311C59.3147 39.6206 59.3708 39.5198 59.452 39.4416C59.5509 39.3324 59.6079 39.1914 59.6129 39.0438V35.162C59.6077 35.0139 59.5508 34.8725 59.452 34.7625C59.3707 34.6851 59.3146 34.5847 59.2912 34.4746V34.4422C59.2912 34.3436 59.3507 34.2918 59.4713 34.2918H63.0747C63.1412 34.2866 63.2073 34.3068 63.2597 34.3484C63.3056 34.4016 63.3342 34.4676 63.3417 34.5377L63.5315 35.534C63.5386 35.5629 63.5387 35.5931 63.5318 35.622C63.5249 35.651 63.5112 35.6778 63.4918 35.7003C63.4724 35.7228 63.4479 35.7403 63.4204 35.7514C63.3929 35.7624 63.3631 35.7666 63.3337 35.7636H63.2951C63.1793 35.7566 63.0708 35.7043 62.9926 35.6181C62.892 35.5201 62.8019 35.4117 62.724 35.2946C62.6433 35.173 62.5452 35.064 62.4328 34.9711C62.3321 34.8807 62.2027 34.8291 62.0677 34.8256H61.376C61.1395 34.8256 61.0221 34.955 61.0221 35.2137V36.7632H61.8473C61.9409 36.7639 62.0313 36.7286 62.0998 36.6645C62.1677 36.6035 62.2224 36.5292 62.2607 36.4462C62.2965 36.3696 62.3401 36.2969 62.391 36.2295C62.4062 36.2028 62.4273 36.18 62.4527 36.1628C62.4781 36.1457 62.5071 36.1348 62.5374 36.1308H62.6001C62.7047 36.1308 62.761 36.1906 62.761 36.312V37.7353C62.761 37.8566 62.7095 37.918 62.6001 37.918H62.5374C62.5074 37.9142 62.4787 37.9036 62.4534 37.8871C62.428 37.8706 62.4067 37.8486 62.391 37.8226C62.3406 37.7589 62.2969 37.69 62.2607 37.6172C62.2216 37.5384 62.1668 37.4685 62.0998 37.4118C62.0301 37.35 61.9403 37.316 61.8473 37.3164H61.0221V38.772C61.0182 38.9157 61.0563 39.0574 61.1314 39.1796C61.1727 39.2358 61.2277 39.2803 61.2911 39.3086C61.3546 39.337 61.4243 39.3483 61.4934 39.3414H62.3202C62.4522 39.3383 62.5776 39.2831 62.6693 39.1877C62.7735 39.0894 62.8624 38.976 62.9331 38.8513C63.0018 38.7294 63.085 38.6165 63.1808 38.5149C63.2177 38.4693 63.2636 38.4321 63.3158 38.4056C63.3679 38.3791 63.4249 38.364 63.4833 38.3612H63.5541C63.5809 38.3602 63.6076 38.3667 63.6311 38.3798C63.6546 38.3929 63.6741 38.4122 63.6876 38.4356C63.7033 38.4591 63.7143 38.4855 63.7198 38.5132C63.7253 38.541 63.7253 38.5696 63.7197 38.5973L63.546 39.6341C63.5392 39.7058 63.5105 39.7735 63.464 39.8282C63.4097 39.8722 63.3404 39.8931 63.2709 39.8864L59.4794 39.9188Z" fill="#5E6C84"/>
<path d="M74.4493 39.0504C74.4805 39.1925 74.542 39.326 74.6295 39.4418C74.704 39.5248 74.7531 39.6275 74.7711 39.7378V39.7702C74.7711 39.8688 74.7083 39.919 74.5829 39.919H72.9469C72.8214 39.919 72.7587 39.8688 72.7587 39.7702V39.7314C72.7864 39.6248 72.8419 39.5276 72.9195 39.4499C72.9686 39.3957 73.0048 39.331 73.0254 39.2607C73.046 39.1904 73.0505 39.1163 73.0386 39.044L72.5656 36.283L71.3624 39.6796C71.3484 39.7447 71.3127 39.8029 71.2611 39.8447C71.2096 39.8865 71.1454 39.9093 71.0792 39.9093C71.0096 39.9096 70.9414 39.8886 70.884 39.849C70.8265 39.8094 70.7824 39.7531 70.7575 39.6877L69.3805 36.1601L68.9558 39.0472C68.9469 39.1194 68.9535 39.1928 68.9752 39.2622C68.9968 39.3317 69.033 39.3957 69.0813 39.4499C69.1604 39.5278 69.2161 39.6265 69.2422 39.7346V39.7669C69.2422 39.8656 69.1794 39.9157 69.054 39.9157H68.0775C67.952 39.9157 67.8893 39.8656 67.8893 39.7669V39.7314C67.9081 39.6207 67.9584 39.5179 68.0341 39.4354C68.1245 39.3217 68.1854 39.1872 68.211 39.044L68.8095 35.1622C68.8184 35.0889 68.8106 35.0145 68.7866 34.9447C68.7626 34.875 68.7231 34.8116 68.6711 34.7595C68.5914 34.6821 68.5355 34.5833 68.5102 34.4748V34.4424C68.5102 34.3438 68.5714 34.292 68.692 34.292H69.7006C69.7933 34.2841 69.8858 34.3081 69.963 34.3601C70.0402 34.4122 70.0975 34.4891 70.1253 34.5783L71.2658 37.9312L72.3678 34.5929C72.392 34.5037 72.4457 34.4254 72.5199 34.3708C72.5941 34.3161 72.6845 34.2884 72.7764 34.292H73.8461C73.9668 34.292 74.0279 34.3438 74.0279 34.4424V34.4748C74.0279 34.5282 73.97 34.622 73.8541 34.7595C73.8013 34.8142 73.7617 34.8805 73.7386 34.9532C73.7154 35.0258 73.7093 35.1029 73.7206 35.1784L74.4493 39.0504Z" fill="#5E6C84"/>
<path d="M81.1912 39.0572C81.2529 39.2053 81.3449 39.3387 81.4614 39.4486C81.5853 39.5683 81.6464 39.6637 81.6464 39.7381V39.7704C81.6464 39.8691 81.5837 39.9192 81.4582 39.9192H79.42C79.2994 39.9192 79.2399 39.8691 79.2399 39.7704V39.7316C79.2449 39.6943 79.2576 39.6585 79.2773 39.6264C79.297 39.5944 79.3231 39.5668 79.3541 39.5456C79.4278 39.4814 79.4937 39.4087 79.5503 39.3289C79.5776 39.2885 79.5944 39.2419 79.5992 39.1933C79.604 39.1447 79.5966 39.0957 79.5777 39.0507L79.4056 38.5655H77.4076L77.2339 39.0507C77.215 39.0957 77.2076 39.1447 77.2124 39.1933C77.2172 39.2419 77.234 39.2885 77.2613 39.3289C77.3179 39.4087 77.3838 39.4814 77.4575 39.5456C77.4887 39.5666 77.515 39.5941 77.5347 39.6262C77.5544 39.6583 77.567 39.6942 77.5717 39.7316V39.764C77.5717 39.8626 77.509 39.9128 77.3835 39.9128H76.2189C76.0934 39.9128 76.0306 39.8626 76.0306 39.764V39.7316C76.0306 39.6637 76.0918 39.5699 76.2156 39.447C76.3321 39.3351 76.4241 39.2002 76.4859 39.0507L77.9578 35.2239C77.9754 35.179 77.9828 35.1308 77.9795 35.0826C77.9761 35.0345 77.9621 34.9877 77.9385 34.9457C77.8886 34.8513 77.8304 34.7614 77.7648 34.6772C77.713 34.623 77.6787 34.5542 77.6666 34.4799V34.4476C77.6666 34.3489 77.7262 34.2972 77.8468 34.2972H78.8538C78.973 34.2934 79.0903 34.3283 79.1882 34.3967C79.2862 34.4652 79.3596 34.5636 79.3975 34.6772L81.1912 39.0572ZM77.62 37.9735H79.1916L78.405 35.7674L77.62 37.9735Z" fill="#5E6C84"/>
<path d="M87.727 39.0568C87.8005 39.1729 87.8923 39.2761 87.9989 39.3625C88.1067 39.4482 88.1887 39.5242 88.2466 39.5679C88.2718 39.587 88.2925 39.6113 88.3075 39.6392C88.3225 39.6672 88.3314 39.698 88.3335 39.7296V39.762C88.3335 39.8606 88.2708 39.9108 88.1437 39.9108H86.2246C86.0991 39.9108 86.0363 39.8606 86.0363 39.762V39.7312C86.0444 39.6597 86.0782 39.5935 86.1313 39.5452C86.1849 39.4867 86.2309 39.4215 86.268 39.3511C86.2941 39.2499 86.2815 39.1426 86.2326 39.0503L85.565 37.8017L84.8411 37.8178V39.0503C84.8473 39.1989 84.9108 39.3393 85.0181 39.4417C85.1056 39.5174 85.1674 39.6186 85.195 39.7312V39.7636C85.195 39.8622 85.1323 39.9124 85.0052 39.9124H83.2759C83.1488 39.9124 83.0861 39.8622 83.0861 39.7636V39.7312C83.1104 39.621 83.1663 39.5203 83.247 39.4417C83.345 39.3345 83.402 39.1958 83.4078 39.0503V35.1669C83.4017 35.021 83.3448 34.8819 83.247 34.7739C83.1662 34.696 83.1102 34.5958 83.0861 34.486V34.4536C83.0861 34.355 83.1488 34.3032 83.2759 34.3032H85.3913C86.1248 34.3032 86.7045 34.4563 87.1302 34.7626C87.3387 34.9131 87.5067 35.1135 87.6191 35.3456C87.7314 35.5777 87.7845 35.8342 87.7737 36.0921C87.7723 36.3951 87.6846 36.6915 87.5211 36.9461C87.343 37.2235 87.0888 37.4432 86.7892 37.5785L87.727 39.0568ZM84.8411 36.6582C84.8254 36.8244 84.8681 36.9909 84.9618 37.1288C85.0109 37.1773 85.0697 37.2146 85.1344 37.2383C85.199 37.262 85.268 37.2716 85.3366 37.2663H85.5714C85.6712 37.2683 85.7701 37.2465 85.8599 37.2027C85.9496 37.1588 86.0278 37.0941 86.0878 37.014C86.2376 36.788 86.3078 36.5181 86.2873 36.2473C86.3027 35.8885 86.1929 35.5354 85.9768 35.2494C85.8984 35.1352 85.7946 35.0409 85.6738 34.9738C85.5529 34.9067 85.4182 34.8688 85.2803 34.8628H85.1435C85.1009 34.862 85.0587 34.8721 85.021 34.8922C84.9832 34.9123 84.9512 34.9417 84.928 34.9777C84.8695 35.0648 84.8407 35.1687 84.846 35.2737L84.8411 36.6582Z" fill="#5E6C84"/>
<path d="M92.2425 39.9981C91.8754 40.005 91.5115 39.9292 91.1774 39.776C90.8434 39.6229 90.5477 39.3965 90.3122 39.1134C89.8032 38.5451 89.5263 37.8045 89.5368 37.0398C89.5105 36.3003 89.77 35.5793 90.2607 35.0278C90.5011 34.7639 90.796 34.5559 91.1247 34.4185C91.4534 34.281 91.808 34.2174 92.1637 34.232C92.7323 34.2174 93.2923 34.3734 93.7723 34.6801C94.2227 34.9777 94.448 35.3319 94.448 35.7427C94.4516 35.8262 94.4378 35.9095 94.4073 35.9873C94.3768 36.065 94.3303 36.1354 94.271 36.1939C94.2068 36.2548 94.1308 36.3017 94.0478 36.3317C93.9647 36.3618 93.8765 36.3743 93.7884 36.3686C93.6141 36.3702 93.4443 36.3133 93.3058 36.2069C93.1655 36.0996 93.047 35.9662 92.9567 35.8139L92.6768 35.3513C92.586 35.2009 92.4701 35.0674 92.3342 34.9566C92.2047 34.8498 92.0417 34.7925 91.8741 34.7949C91.7404 34.7971 91.6092 34.8321 91.492 34.897C91.3748 34.9618 91.2751 35.0545 91.2017 35.1669C91.0049 35.4635 90.911 35.8172 90.9347 36.1729C90.9347 36.9148 91.1127 37.5251 91.4688 38.0038C91.8248 38.4826 92.2366 38.7209 92.7042 38.7187C92.8685 38.7215 93.0319 38.6946 93.1868 38.6395C93.3275 38.5888 93.4578 38.5126 93.5712 38.4146C93.665 38.3363 93.7522 38.2503 93.8318 38.1575C93.8908 38.0831 93.96 37.9909 94.0394 37.8809C94.07 37.8387 94.113 37.8073 94.1624 37.791C94.2117 37.7748 94.2649 37.7745 94.3144 37.7903C94.3661 37.8005 94.4117 37.8306 94.4418 37.874C94.4718 37.9175 94.4838 37.971 94.4753 38.0232C94.4631 38.5505 94.2474 39.0522 93.8737 39.4223C93.4844 39.8062 92.9407 39.9981 92.2425 39.9981Z" fill="#5E6C84"/>
<path d="M100.908 39.0572C100.97 39.2056 101.063 39.339 101.18 39.4486C101.302 39.5682 101.365 39.6637 101.365 39.7381V39.7704C101.365 39.8691 101.302 39.9192 101.175 39.9192H99.1387C99.0181 39.9192 98.9569 39.8691 98.9569 39.7704V39.7316C98.9619 39.6943 98.9747 39.6584 98.9944 39.6264C99.014 39.5943 99.0402 39.5668 99.0712 39.5456C99.1454 39.4814 99.2118 39.4087 99.269 39.3289C99.2959 39.2883 99.3124 39.2417 99.3172 39.1932C99.322 39.1447 99.3148 39.0958 99.2964 39.0507L99.1226 38.5655H97.1199L96.9461 39.0507C96.9275 39.0958 96.9204 39.1449 96.9254 39.1935C96.9305 39.2421 96.9475 39.2886 96.9751 39.3289C97.0313 39.409 97.0972 39.4818 97.1713 39.5456C97.2023 39.5668 97.2284 39.5943 97.2481 39.6264C97.2678 39.6584 97.2805 39.6943 97.2855 39.7316V39.764C97.2855 39.8626 97.2228 39.9128 97.0957 39.9128H95.9327C95.8056 39.9128 95.7429 39.8626 95.7429 39.764V39.7316C95.7429 39.6637 95.8056 39.5699 95.9278 39.4469C96.0447 39.3352 96.1373 39.2002 96.1997 39.0507L97.67 35.2239C97.6876 35.179 97.6951 35.1308 97.6917 35.0826C97.6884 35.0345 97.6744 34.9877 97.6507 34.9457C97.6008 34.8516 97.5432 34.7618 97.4786 34.6772C97.4264 34.623 97.3917 34.5542 97.3789 34.4799V34.4476C97.3789 34.3489 97.44 34.2971 97.5606 34.2971H98.5676C98.6867 34.2934 98.8037 34.3284 98.9013 34.3969C98.999 34.4654 99.0721 34.5637 99.1098 34.6772L100.908 39.0572ZM97.337 37.9735H98.9103L98.1237 35.7674L97.337 37.9735Z" fill="#5E6C84"/>
<path d="M104.93 39.998C104.33 40.0221 103.736 39.8679 103.223 39.5549C102.772 39.2605 102.546 38.9284 102.546 38.5586C102.546 38.1849 102.736 37.9973 103.112 37.9973C103.262 37.9982 103.405 38.056 103.514 38.1591C103.631 38.2658 103.73 38.3916 103.805 38.5311C103.883 38.6766 103.966 38.8222 104.056 38.9661C104.15 39.1162 104.276 39.2425 104.426 39.3349C104.594 39.4381 104.788 39.4903 104.985 39.4853C105.182 39.4967 105.377 39.4345 105.531 39.3107C105.599 39.2502 105.652 39.1752 105.687 39.0911C105.722 39.0071 105.737 38.9163 105.733 38.8254C105.739 38.6375 105.678 38.4536 105.562 38.3062C105.445 38.1633 105.294 38.0521 105.123 37.9828C104.927 37.9014 104.726 37.8328 104.521 37.7773C104.3 37.7159 104.08 37.6447 103.86 37.5638C103.649 37.4862 103.447 37.3853 103.258 37.263C103.067 37.1341 102.914 36.9566 102.813 36.7487C102.692 36.497 102.633 36.2195 102.641 35.94C102.635 35.7027 102.684 35.4674 102.785 35.253C102.886 35.0386 103.036 34.8512 103.223 34.7059C103.61 34.39 104.126 34.232 104.769 34.232C105.336 34.2134 105.895 34.3637 106.378 34.6638C106.815 34.9517 107.032 35.2801 107.021 35.6488C107.026 35.726 107.015 35.8032 106.988 35.8759C106.962 35.9485 106.921 36.0149 106.868 36.071C106.809 36.1268 106.739 36.1699 106.663 36.1978C106.586 36.2256 106.505 36.2375 106.424 36.2327C106.263 36.2354 106.105 36.1778 105.983 36.071C105.864 35.9694 105.766 35.8445 105.696 35.7038L105.483 35.2736C105.414 35.1302 105.316 35.0033 105.194 34.9016C105.067 34.7945 104.906 34.737 104.74 34.7399C104.641 34.7332 104.542 34.747 104.449 34.7804C104.356 34.8138 104.27 34.8661 104.198 34.934C104.135 35.0009 104.085 35.0799 104.053 35.1663C104.021 35.2527 104.006 35.3447 104.01 35.437C104.001 35.6402 104.057 35.841 104.171 36.0095C104.284 36.1662 104.436 36.2905 104.611 36.3702C104.806 36.4595 105.007 36.5346 105.213 36.595C105.433 36.6608 105.652 36.7336 105.869 36.8134C106.078 36.8877 106.279 36.9842 106.468 37.1013C106.654 37.221 106.806 37.3885 106.907 37.5865C107.027 37.8235 107.086 38.0872 107.077 38.3531C107.083 38.5892 107.028 38.8228 106.919 39.0317C106.809 39.2406 106.648 39.4179 106.452 39.5468C106.004 39.8531 105.471 40.0109 104.93 39.998Z" fill="#5E6C84"/>
</g>
<defs>
<clipPath id="clip0_1211_1302">
<rect width="132" height="40" fill="white"/>
</clipPath>
</defs>
</svg>
