<svg width="145" height="28" viewBox="0 0 145 28" fill="none" xmlns="http://www.w3.org/2000/svg">
<path d="M60.5146 27.5497C58.7394 27.5497 58.6622 26.0446 58.6622 23.4204C58.6622 23.4204 58.6622 18.2877 58.6622 14.4286C58.6622 9.21873 53.954 7.98381 50.3264 7.98381C46.1971 7.98381 44.036 10.2993 43.4185 11.7272C42.7625 13.3094 43.4957 14.7373 44.6535 14.9689C46.0042 15.239 46.8532 14.0813 46.5444 13.0393C46.2357 11.9587 45.0008 11.457 45.5411 10.2221C46.1199 9.02578 47.7022 8.13817 50.2106 8.13817C53.0278 8.13817 52.8349 10.608 52.8349 13.8883C52.8349 14.8917 52.8349 16.1652 52.8349 17.4387C52.4489 17.7475 51.9087 18.0176 51.1754 18.2877C47.3163 19.5999 41.9906 19.021 41.7977 23.8063C41.6433 28.0128 46.583 28.3601 49.4774 27.4725C51.0982 27.0094 52.2174 25.7745 52.9506 24.2308C53.6067 27.5111 57.6202 27.8199 59.8585 27.8199C60.5918 27.8199 61.3636 27.6269 61.8267 27.3568V27.1252C61.6337 27.2796 61.0934 27.5497 60.5146 27.5497ZM50.1335 27.048C47.7794 28.2444 46.776 26.4306 47.0461 22.9187C47.2777 19.4069 49.4774 19.0596 51.3684 18.3649C51.9858 18.1334 52.4875 17.9018 52.8349 17.6703C52.8349 20.4489 52.8349 23.2275 52.8349 23.2275C52.8349 23.4976 52.8735 23.7292 52.912 23.9607C52.2946 25.2728 51.4456 26.4306 50.1335 27.048Z" fill="#5E6C84"/>
<path d="M76.518 8.42177C74.9357 8.57614 72.08 10.6601 71.038 13.979C71.0766 10.6601 71.3081 9.1936 71.6555 9.00065V8.80769H62.7794V9.00065C64.8634 9.00065 65.2107 10.0426 65.2107 13.2071V23.4339C65.2107 26.5598 64.8634 27.6789 62.7794 27.6789V27.8719H73.4307V27.6789C71.3853 27.6789 71.038 26.5598 70.9994 23.4339C70.9994 23.4339 70.9994 14.5578 70.9994 14.5192C71.6169 12.4353 73.1219 10.3128 74.4341 9.92684C75.8234 9.50234 75.0515 11.3933 76.518 12.3581C77.4056 12.8984 79.258 12.7054 79.6053 11.239C80.0684 9.50234 78.7949 8.22882 76.518 8.42177Z" fill="#5E6C84"/>
<path d="M90.4245 27.5111C88.5721 27.5111 88.3792 25.0799 88.3792 22.4942V8.56268H91.8138V8.36972H88.3792V3.66155H88.1862C87.453 6.09282 84.6358 6.94183 82.5905 6.94183C82.5905 7.13479 82.5905 8.36972 82.5905 8.36972C82.5905 8.36972 81.5714 8.36972 80.8152 8.36972V8.56268H81.6809H82.5905C82.5905 11.9201 82.5905 21.7224 82.5905 21.7224C82.5905 27.4339 87.0671 27.8199 89.6913 27.8199C90.8104 27.8199 91.5437 27.6269 92.1226 27.3182V27.1252C91.8524 27.241 91.1964 27.5111 90.4245 27.5111Z" fill="#5E6C84"/>
<path d="M101.299 14.7894C101.299 10.8916 101.569 9.1936 101.916 9.00065V8.80769H93.0401V9.00065C95.1241 9.00065 95.4714 10.0812 95.4714 13.2071V23.4339C95.4714 26.5598 95.1241 27.6789 93.0401 27.6789V27.8719H103.73V27.6789C101.646 27.6789 101.299 26.5984 101.299 23.4725V14.7894ZM97.9278 6.4545C99.6258 6.4545 100.977 5.02661 100.977 3.28999C100.977 1.51478 99.6258 0.125488 97.9278 0.125488C96.2684 0.125488 94.9176 1.51478 94.9176 3.28999C94.9176 5.02661 96.2684 6.4545 97.9278 6.4545Z" fill="#5E6C84"/>
<path d="M125.728 15.5226C125.728 10.5829 123.027 8.42177 118.898 8.42177C115.849 8.42177 114.383 9.50234 113.186 11.2775C113.302 9.81107 113.534 9.11642 113.765 9.00065V8.80769H104.85V9.00065C106.934 9.00065 107.282 10.0426 107.282 13.2071V23.4339C107.282 26.5598 106.934 27.6789 104.85 27.6789V27.8719H115.54V27.6789C113.456 27.6789 113.109 26.5598 113.109 23.4339V14.7894C113.109 13.5159 113.109 12.5125 113.186 11.6635C114.074 9.92684 115.772 8.80769 117.316 8.80769C120.094 8.80769 119.94 12.1652 119.94 14.7894V23.4339C119.901 26.5598 119.554 27.6789 117.508 27.6789V27.8719H128.16V27.6789C126.114 27.6789 125.728 26.5984 125.728 23.4725V15.5226Z" fill="#5E6C84"/>
<path d="M134.02 11.2901C134.02 9.39913 135.255 8.39575 137.223 8.39575C138.883 8.39575 140.272 8.93603 140.967 9.66927C141.893 10.7112 140.696 11.4831 140.581 12.6022C140.504 13.7214 141.661 14.4932 142.665 14.1073C143.784 13.7214 143.977 12.1777 143.128 10.9042C142.394 9.82363 140.195 8.20279 136.451 8.20279C132.901 8.20279 129.814 9.78504 129.621 13.2197C129.196 20.745 141.044 19.4715 140.774 24.6428C140.658 26.6881 138.805 27.8459 136.297 27.8459C134.213 27.8459 132.515 27.0741 131.782 26.225C130.778 25.1445 132.168 24.3341 132.245 23.2149C132.322 22.1729 131.396 21.2853 130.161 21.6712C129.158 22.0186 128.849 23.6394 129.736 24.9129C130.47 25.9935 132.631 28.0002 136.567 28.0002C141.16 28.0002 144.44 26.0707 144.903 22.6746C145.945 14.8405 134.02 15.5738 134.02 11.2901Z" fill="#5E6C84"/>
<path d="M15.7297 16.705L22.1957 13.6793L13.5152 0H1.40308V0.211885C3.38091 0.211885 5.03755 1.4493 6.44063 3.02572V19.6714C6.43218 24.7228 3.5246 27.6976 0 27.6976V27.9095H13.101V27.6976C9.56797 27.6976 6.7111 24.7143 6.7111 19.646V19.4595V3.27998C7.2605 3.94107 11.9769 11.035 15.7297 16.705Z" fill="#5E6C84"/>
<path d="M35.7023 4.61062C35.7277 1.69508 36.108 0.211885 38.9733 0.211885V0H27.6473L22.1449 10.9587L22.4407 10.8231L27.6473 0.466148V6.89899V8.38218V23.0107C27.5966 26.1636 27.3346 27.6976 24.3763 27.6976V27.9095H38.9818V27.6976C36.0151 27.6976 35.7108 26.1636 35.7108 23.0107L35.7023 4.61062Z" fill="#5E6C84"/>
<path d="M41.826 3.64474H43.9782C44.0149 3.75511 44.1227 3.84971 44.3014 3.92854C44.4801 4.00212 44.7192 4.05993 45.0188 4.10198C45.3236 4.13877 45.6757 4.15716 46.0751 4.15716C46.4693 4.15716 46.7794 4.14665 47.0054 4.12563C47.2366 4.09935 47.3996 4.0573 47.4942 3.99949C47.5888 3.93642 47.6361 3.85233 47.6361 3.74722C47.6361 3.64736 47.5599 3.57116 47.4074 3.5186C47.255 3.46079 46.9844 3.42137 46.5955 3.40035C46.2065 3.37933 45.66 3.36882 44.9557 3.36882C44.4301 3.36882 43.9755 3.34517 43.5919 3.29787C43.2135 3.24531 42.9007 3.16648 42.6537 3.06136C42.412 2.95099 42.2333 2.81435 42.1177 2.65142C42.002 2.48324 41.9442 2.28353 41.9442 2.05228C41.9442 1.65286 42.0782 1.32438 42.3463 1.06685C42.6196 0.804072 43.0295 0.609614 43.5761 0.483479C44.1279 0.352089 44.8164 0.286394 45.6416 0.286394C46.8503 0.286394 47.7727 0.462457 48.4086 0.814584C49.0498 1.16145 49.3704 1.66337 49.3704 2.32032H47.3286C47.3023 2.14688 47.1394 2.01549 46.8398 1.92615C46.5403 1.83155 46.1146 1.78425 45.5627 1.78425C45.0161 1.78425 44.6088 1.81578 44.3408 1.87885C44.078 1.94191 43.9466 2.04966 43.9466 2.20207C43.9466 2.2809 43.9834 2.34397 44.057 2.39127C44.1306 2.43857 44.2567 2.47799 44.4354 2.50952C44.6193 2.5358 44.8769 2.55419 45.208 2.56471C45.5391 2.57522 45.9595 2.58047 46.4693 2.58047C47.0317 2.58047 47.5099 2.60938 47.9041 2.66719C48.2983 2.71975 48.6162 2.80121 48.858 2.91158C49.105 3.02195 49.2837 3.16385 49.3941 3.33728C49.5044 3.50546 49.5596 3.70518 49.5596 3.93642C49.5596 4.33585 49.4335 4.6617 49.1812 4.91397C48.9289 5.16624 48.5295 5.35281 47.9829 5.47369C47.4364 5.59457 46.7216 5.65501 45.8386 5.65501C45.3394 5.65501 44.8795 5.62611 44.459 5.5683C44.0438 5.51048 43.6733 5.42639 43.3475 5.31602C43.0216 5.2004 42.7457 5.06113 42.5197 4.8982C42.2937 4.73002 42.1203 4.54345 41.9994 4.33848C41.8838 4.12825 41.826 3.89701 41.826 3.64474Z" fill="#5E6C84"/>
<path d="M50.9059 1.63446H55.5414V2.81698H50.9059V1.63446ZM52.2776 0.451946H54.1697V5.49734H52.2776V0.451946Z" fill="#5E6C84"/>
<path d="M64.0873 5.49734H62.1953V1.63446H64.0873V5.49734ZM62.2742 3.50283L62.2899 3.88124C62.2742 3.99161 62.2216 4.12037 62.1322 4.26753C62.0482 4.41469 61.9299 4.5671 61.7775 4.72477C61.6251 4.88244 61.4385 5.02959 61.2178 5.16624C60.997 5.29763 60.7448 5.40537 60.461 5.48946C60.1772 5.57355 59.8618 5.6156 59.5149 5.6156C59.1681 5.6156 58.8396 5.57881 58.5295 5.50523C58.2194 5.4369 57.9435 5.32128 57.7018 5.15836C57.46 4.99543 57.2708 4.77732 57.1342 4.50403C56.9975 4.22548 56.9292 3.87861 56.9292 3.46342V1.63446H58.8212V3.26633C58.8212 3.55539 58.8685 3.77875 58.9631 3.93642C59.063 4.09409 59.218 4.20446 59.4282 4.26753C59.6385 4.32534 59.9091 4.35425 60.2402 4.35425C60.5503 4.35425 60.8367 4.30957 61.0995 4.22023C61.3676 4.12563 61.6014 4.01263 61.8011 3.88124C62.0061 3.74985 62.1638 3.62371 62.2742 3.50283Z" fill="#5E6C84"/>
<path d="M68.5348 5.60771C67.9672 5.60771 67.4627 5.52888 67.0212 5.37121C66.5798 5.20828 66.2303 4.97441 65.9727 4.66958C65.7205 4.36476 65.5943 3.99686 65.5943 3.5659C65.5943 3.11392 65.7205 2.73551 65.9727 2.43069C66.2303 2.12586 66.5798 1.89724 67.0212 1.74483C67.4627 1.59242 67.9672 1.51621 68.5348 1.51621C69.0079 1.51621 69.4336 1.56614 69.812 1.66599C70.1904 1.7606 70.5136 1.89987 70.7816 2.08382C71.0497 2.26251 71.2546 2.47799 71.3965 2.73026C71.5384 2.98253 71.6094 3.26108 71.6094 3.5659C71.6094 3.87073 71.5384 4.14928 71.3965 4.40155C71.2546 4.64856 71.0497 4.86404 70.7816 5.04799C70.5136 5.22668 70.1904 5.36595 69.812 5.46581C69.4336 5.56041 69.0079 5.60771 68.5348 5.60771ZM69.2444 4.40943C69.6438 4.40943 70.009 4.38578 70.3402 4.33848C70.6765 4.28592 70.9445 4.1992 71.1443 4.07833C71.3492 3.95745 71.4517 3.78664 71.4517 3.5659C71.4517 3.33991 71.3492 3.16648 71.1443 3.0456C70.9445 2.92472 70.6765 2.84063 70.3402 2.79333C70.009 2.74603 69.6438 2.72237 69.2444 2.72237C68.7083 2.72237 68.2931 2.79333 67.9988 2.93523C67.7045 3.07187 67.5573 3.2821 67.5573 3.5659C67.5573 3.74985 67.623 3.90489 67.7544 4.03103C67.8858 4.15716 68.0776 4.25176 68.3299 4.31483C68.5821 4.3779 68.887 4.40943 69.2444 4.40943ZM71.4517 0.0577738H73.3437V5.49734H71.5621C71.5411 5.37646 71.5174 5.18201 71.4911 4.91397C71.4649 4.64068 71.4517 4.33585 71.4517 3.99949V0.0577738Z" fill="#5E6C84"/>
<path d="M77.2836 0.0463867V1.2289H75.2812V0.0463867H77.2836ZM75.3364 1.63446H77.2284V5.49734H75.3364V1.63446Z" fill="#5E6C84"/>
<path d="M82.6157 5.6156C81.7801 5.6156 81.0837 5.54727 80.5266 5.41063C79.9748 5.27398 79.5596 5.05587 79.281 4.7563C79.0077 4.45673 78.8711 4.06256 78.8711 3.57379C78.8711 3.08501 79.0077 2.69084 79.281 2.39127C79.5596 2.08644 79.9748 1.86571 80.5266 1.72906C81.0837 1.58716 81.7801 1.51621 82.6157 1.51621C83.4461 1.51621 84.1346 1.58716 84.6812 1.72906C85.233 1.86571 85.6456 2.08644 85.9189 2.39127C86.1922 2.69084 86.3288 3.08501 86.3288 3.57379C86.3288 4.06256 86.1922 4.45673 85.9189 4.7563C85.6456 5.05587 85.233 5.27398 84.6812 5.41063C84.1346 5.54727 83.4461 5.6156 82.6157 5.6156ZM82.6157 4.4725C83.0047 4.4725 83.3305 4.44096 83.5933 4.3779C83.8561 4.30957 84.0558 4.20972 84.1924 4.07833C84.3291 3.94168 84.3974 3.7735 84.3974 3.57379C84.3974 3.37407 84.3291 3.20589 84.1924 3.06925C84.061 2.9326 83.8639 2.83012 83.6012 2.76179C83.3384 2.69347 83.0099 2.65931 82.6157 2.65931C82.2268 2.65931 81.8957 2.69347 81.6224 2.76179C81.3544 2.83012 81.1494 2.9326 81.0075 3.06925C80.8709 3.20064 80.8025 3.36882 80.8025 3.57379C80.8025 3.7735 80.8709 3.94168 81.0075 4.07833C81.1442 4.20972 81.3465 4.30957 81.6145 4.3779C81.8878 4.44096 82.2216 4.4725 82.6157 4.4725Z" fill="#5E6C84"/>
</svg>
