<svg width="157" height="20" viewBox="0 0 157 20" fill="none" xmlns="http://www.w3.org/2000/svg">
<path d="M81.0005 13.21L77.8087 16.4018L81.0005 19.5937L84.1923 16.4018L81.0005 13.21Z" fill="#5E6C84"/>
<path d="M117.695 0.4375V13.2111H117.025L113.404 6.82774L109.776 0.4375H97.501V6.82774V19.5945H104.12V6.82774H104.811L108.432 13.2111L112.055 19.5945H124.315V13.2111V0.4375H117.695Z" fill="#5E6C84"/>
<path d="M29.651 0.4375V13.2111H28.9803L25.3569 6.82774L21.729 0.4375H9.45621V6.82774V19.5945H16.0752V6.82774H16.7641L20.3875 13.2111L24.0086 19.5945H36.2701V13.2111V0.4375H29.651Z" fill="#5E6C84"/>
<path d="M147.661 0.439941L140.791 12.5428L133.941 0.439941H125.357L132.576 13.209H140.412L136.789 19.5924H145.379L156.247 0.439941H147.661Z" fill="#5E6C84"/>
<path d="M6.6213 0.439941H0V19.5947H6.6213V0.439941Z" fill="#5E6C84"/>
<path d="M87.8745 19.5924H96.46L85.5926 0.439941H77.002L80.6277 6.82334H72.7736L65.545 19.5924H74.131L80.997 7.47594L87.8745 19.5924Z" fill="#5E6C84"/>
<path d="M66.3494 14.1106V14.165C66.4038 15.6538 65.9982 16.8094 65.1235 17.6841C62.8144 20 57.419 20 52.1867 20C47.3261 20 44.3463 19.6896 42.2162 18.9554C39.6488 18.0739 38.339 16.5058 38.2053 14.165V13.2132H46.6803L46.7823 14.1491C47.1018 16.4355 50.3014 16.4151 51.8378 16.4151H52.0644C54.2103 16.4151 56.4333 16.4151 57.308 15.4883C57.4542 15.332 57.5641 15.1454 57.6299 14.9417C57.6958 14.738 57.7158 14.5223 57.6887 14.31C57.564 13.177 55.162 12.8507 51.5183 12.3657C48.1555 11.9125 44.0404 11.3823 41.2962 10.0091C39.2817 9.1026 37.87 7.8337 37.7838 5.9755V5.9053V5.8509C37.7295 4.3598 38.1351 3.2064 39.0075 2.33174C41.3189 4.76837e-07 46.7256 0 51.9465 0C56.8072 0 59.787 0.31271 61.9171 1.04691C64.4845 1.92839 65.7943 3.4965 65.928 5.8373V6.7981H57.4553L57.3533 5.8622C57.0338 3.5758 53.8341 3.5962 52.2978 3.5962H52.0712C49.9252 3.5962 47.7023 3.5962 46.8276 4.5253C46.6812 4.6815 46.5712 4.8681 46.5054 5.0718C46.4396 5.2755 46.4196 5.4913 46.4469 5.7036C46.5715 6.8366 48.9735 7.1629 52.6173 7.6456C55.9801 8.0988 60.0952 8.6291 62.8394 10.0023C64.8539 10.9087 66.2656 12.1799 66.3517 14.0381L66.3494 14.1106Z" fill="#5E6C84"/>
</svg>
