<svg width="122" height="57" viewBox="0 0 122 57" fill="none" xmlns="http://www.w3.org/2000/svg">
<g clip-path="url(#clip0_1211_1476)">
<path d="M26.7805 3.01465H1.70035C1.70035 3.01465 0 3.01465 0 4.4013C0 5.78795 1.70035 7.1746 1.70035 12.1183V36.1156C1.70035 41.0593 0 42.446 0 43.8326C0 43.8326 -5.36236e-07 45.2193 1.70035 45.2193H9.777C9.777 45.2193 11.4774 45.2193 11.4774 43.8326C11.4774 42.446 9.777 41.0593 9.777 36.1156V25.6856C15.8497 25.9267 15.6068 29.6647 17.3678 29.6647C17.3678 29.6647 18.3395 29.6647 18.3395 28.4589V20.9227C18.3395 20.9227 18.3395 19.717 17.3678 19.717C15.6068 19.717 15.8497 23.4549 9.777 23.696V12.1183C9.777 7.89807 10.2021 5.00419 11.3514 5.00419H16.5132C22.2822 5.00419 21.9111 8.2598 23.1324 8.98327C23.6182 9.28472 23.3146 9.10385 23.9218 9.10385C24.4076 9.10385 24.8327 8.8627 25.1971 8.2598L27.5047 4.52188C27.8736 3.91898 28.2379 3.01465 26.7805 3.01465Z" fill="#5E6C84"/>
<path d="M39.4072 2.59926C39.4072 0.609724 38.6177 0.00683594 37.6461 0.00683594C36.8156 0.0502286 36.0238 0.368618 35.3969 0.91117L31.3328 4.22037C29.0251 6.08934 31.3328 6.4533 31.3328 9.16408V36.1155C31.3328 41.0592 29.6324 42.4459 29.6324 43.8325C29.6324 43.8325 29.6324 45.2192 31.3328 45.2192H39.4072C39.4072 45.2192 41.1075 45.2192 41.1075 43.8325C41.1075 42.4459 39.4072 41.0592 39.4072 36.1155V2.59926Z" fill="#5E6C84"/>
<path d="M120.297 15.0723H114.225C114.225 15.0723 112.524 15.0723 112.524 16.4589C112.524 17.8456 115.864 19.585 114.589 24.1782L109.67 42.2046L104.144 24.1782C102.504 18.8191 103.469 17.8456 103.469 16.4589C103.469 15.5657 102.923 15.0723 101.769 15.0723H92.9704C92.9704 15.0723 91.27 15.0723 91.27 16.4589C91.27 17.725 93.7598 19.1116 95.278 22.9724C95.2205 23.3786 95.1394 23.7812 95.0351 24.1782L90.1162 42.2046L84.5901 24.1782C82.9505 18.8191 83.9154 17.8456 83.9154 16.4589C83.9154 15.5657 83.3688 15.0723 82.215 15.0723H73.4164C73.4164 15.0723 71.716 15.0723 71.716 16.4589C71.716 17.8456 74.6916 19.4153 76.1491 24.1782L81.6752 42.2046C82.2825 44.1339 83.0112 45.2191 84.0435 45.2191H90.0555C91.27 45.2191 91.7558 43.8324 92.2417 42.093L96.4318 26.5987L101.229 42.2135C101.836 44.1428 102.565 45.228 103.598 45.228H109.61C110.824 45.228 111.31 43.8413 111.796 42.1019L116.654 24.196C117.99 19.3707 121.998 17.8634 121.998 16.4768C121.998 15.5501 121.451 15.0723 120.297 15.0723Z" fill="#5E6C84"/>
<path d="M91.1688 52.503C91.1207 52.1403 90.9412 51.8075 90.6639 51.5667C90.3865 51.3258 90.0303 51.1935 89.6619 51.1945C89.0096 51.1945 88.5261 51.5875 88.1212 52.1011C88.0091 51.8295 87.8172 51.5977 87.5705 51.436C87.3237 51.2742 87.0336 51.1901 86.738 51.1945C86.3082 51.2044 85.8982 51.376 85.591 51.6746C85.5572 51.3955 85.4223 51.3061 85.2761 51.3061C85.1225 51.3144 84.976 51.3733 84.86 51.4736L84.1065 52.0899C83.6769 52.436 84.1065 52.503 84.1065 53.0054V55.2048C84.1065 56.1203 83.7894 56.3771 83.7894 56.6339C83.7894 56.8014 83.8906 56.8907 84.1065 56.8907H85.6022C85.6022 56.8907 85.9171 56.8907 85.9171 56.6339C85.9171 56.3771 85.6022 56.1203 85.6022 55.2048V52.2685C85.8122 52.0101 86.1141 51.8415 86.4456 51.7974C87.0754 51.7974 87.0416 52.503 87.0079 53.5301C86.9629 54.7806 86.7717 55.6403 86.7493 56.3101C86.738 56.7232 86.9179 56.8907 87.1091 56.8907H88.5261C88.706 56.8907 88.8522 56.8014 88.8522 56.6339C88.8522 56.3325 88.5711 56.2543 88.5036 55.9194C88.4136 55.4728 88.3574 53.2622 88.2562 52.57C88.6048 52.1011 89.0321 51.7862 89.3695 51.7862C89.9993 51.7862 89.9655 52.4918 89.9318 53.519C89.8868 54.7694 89.6956 55.6291 89.6731 56.299C89.6619 56.7121 89.8418 56.8795 90.033 56.8795H91.45C91.6299 56.8795 91.7761 56.7902 91.7761 56.6228C91.7761 56.3213 91.4949 56.2432 91.4275 55.9082C91.3375 55.4616 91.27 53.0635 91.1688 52.503Z" fill="#5E6C84"/>
<path d="M93.1795 50.5579C93.3135 50.5582 93.4462 50.5321 93.5698 50.481C93.6935 50.4299 93.8057 50.3549 93.8999 50.2603C93.9941 50.1658 94.0684 50.0536 94.1185 49.9302C94.1686 49.8069 94.1934 49.6749 94.1917 49.5419C94.1981 49.4053 94.1766 49.2687 94.1284 49.1405C94.0801 49.0123 94.0062 48.8952 93.9111 48.7962C93.8159 48.6972 93.7015 48.6184 93.5748 48.5645C93.4481 48.5107 93.3117 48.4829 93.1739 48.4829C93.0361 48.4829 92.8997 48.5107 92.773 48.5645C92.6463 48.6184 92.5319 48.6972 92.4367 48.7962C92.3416 48.8952 92.2677 49.0123 92.2194 49.1405C92.1712 49.2687 92.1497 49.4053 92.1562 49.5419C92.1547 49.6758 92.1801 49.8086 92.231 49.9325C92.2819 50.0564 92.3572 50.169 92.4525 50.2637C92.5479 50.3583 92.6613 50.4331 92.7861 50.4836C92.911 50.5342 93.0447 50.5594 93.1795 50.5579Z" fill="#5E6C84"/>
<path d="M93.9218 51.8331C93.9218 51.4312 93.7868 51.3062 93.6294 51.3062C93.4598 51.3252 93.3015 51.3999 93.1795 51.5183L92.4261 52.1323C91.9987 52.4807 92.0775 52.6928 92.4261 53.0501V55.2048C92.4261 56.1203 92.1112 56.3771 92.1112 56.6339C92.1112 56.6339 92.1112 56.8907 92.4261 56.8907H93.9218C93.9218 56.8907 94.2366 56.8907 94.2366 56.6339C94.2366 56.3771 93.9218 56.1203 93.9218 55.2048V51.8331Z" fill="#5E6C84"/>
<path d="M96.1259 52.3687C96.1259 51.978 96.4071 51.5626 96.8232 51.5626C97.6351 51.5626 97.4529 53.1257 98.2761 53.1257C98.4461 53.133 98.6121 53.0736 98.7384 52.9604C98.8646 52.8472 98.9409 52.6892 98.9508 52.5206C98.9508 51.7748 98.1052 51.2031 96.8029 51.2031C95.9685 51.2031 94.5853 51.6385 94.5853 52.7907C94.5853 54.2533 97.3967 54.6329 97.3967 55.8387C97.3967 56.2294 97.1155 56.6425 96.6994 56.6425C95.8897 56.6425 96.0719 55.0906 95.2488 55.0906C95.1638 55.0855 95.0787 55.097 94.9983 55.1245C94.9179 55.1521 94.8437 55.195 94.78 55.251C94.7163 55.307 94.6643 55.3749 94.627 55.4508C94.5898 55.5268 94.5679 55.6092 94.5628 55.6935C94.5628 56.4416 95.4062 57.011 96.7107 57.011C97.5429 57.011 98.9598 56.6314 98.9598 55.4814C98.9733 54.0099 96.1259 53.5745 96.1259 52.3687Z" fill="#5E6C84"/>
<path d="M100.86 52.3687C100.86 51.978 101.141 51.5626 101.558 51.5626C102.367 51.5626 102.187 53.1257 103.008 53.1257C103.093 53.1308 103.179 53.1192 103.259 53.0916C103.34 53.0639 103.414 53.0207 103.478 52.9645C103.542 52.9083 103.593 52.8401 103.631 52.7639C103.668 52.6878 103.689 52.6051 103.694 52.5206C103.694 51.7748 102.851 51.2031 101.546 51.2031C100.714 51.2031 99.3309 51.6385 99.3309 52.7907C99.3309 54.2533 102.142 54.6329 102.142 55.8387C102.142 56.2294 101.861 56.6425 101.445 56.6425C100.635 56.6425 100.815 55.0906 99.9944 55.0906C99.8248 55.0833 99.6591 55.1424 99.5329 55.2551C99.4067 55.3679 99.3301 55.5253 99.3197 55.6935C99.3197 56.4416 100.163 57.011 101.468 57.011C102.3 57.011 103.717 56.6314 103.717 55.4814C103.706 54.0099 100.86 53.5745 100.86 52.3687Z" fill="#5E6C84"/>
<path d="M105.853 51.8331C105.853 51.4312 105.718 51.3062 105.561 51.3062C105.392 51.3252 105.233 51.3999 105.111 51.5183L104.358 52.1323C103.93 52.4807 104.009 52.6928 104.358 53.0501V55.2048C104.358 56.1203 104.043 56.3771 104.043 56.6339C104.043 56.6339 104.043 56.8907 104.358 56.8907H105.853C105.853 56.8907 106.168 56.8907 106.168 56.6339C106.168 56.3771 105.853 56.1203 105.853 55.2048V51.8331Z" fill="#5E6C84"/>
<path d="M105.111 50.5583C105.245 50.5586 105.378 50.5324 105.502 50.4813C105.625 50.4302 105.737 50.3552 105.832 50.2607C105.926 50.1661 106 50.0539 106.05 49.9306C106.1 49.8073 106.125 49.6753 106.123 49.5423C106.14 49.4006 106.126 49.257 106.083 49.121C106.039 48.985 105.968 48.8597 105.872 48.7532C105.776 48.6467 105.659 48.5614 105.528 48.5031C105.397 48.4447 105.255 48.4146 105.111 48.4146C104.968 48.4146 104.825 48.4447 104.694 48.5031C104.563 48.5614 104.446 48.6467 104.351 48.7532C104.255 48.8597 104.183 48.985 104.14 49.121C104.096 49.257 104.083 49.4006 104.099 49.5423C104.098 49.6752 104.123 49.807 104.173 49.9302C104.223 50.0534 104.297 50.1655 104.392 50.26C104.486 50.3545 104.598 50.4295 104.721 50.4807C104.845 50.5319 104.977 50.5583 105.111 50.5583Z" fill="#5E6C84"/>
<path d="M109.171 51.1943C107.439 51.1943 106.506 52.3577 106.506 54.0971C106.506 55.8366 107.439 57 109.171 57C110.903 57 111.836 55.8388 111.836 54.0971C111.836 52.3555 110.903 51.1943 109.171 51.1943ZM109.171 56.6337C108.699 56.6337 108.159 55.8411 108.159 54.0994C108.159 52.3577 108.699 51.5628 109.171 51.5628C109.643 51.5628 110.183 52.3577 110.183 54.0994C110.183 55.8411 109.643 56.636 109.171 56.636V56.6337Z" fill="#5E6C84"/>
<path d="M116.964 52.5028C116.916 52.1402 116.737 51.8073 116.459 51.5665C116.182 51.3257 115.826 51.1934 115.457 51.1943C114.839 51.1943 114.366 51.5538 113.984 52.0205V51.7861C113.984 51.4176 113.838 51.306 113.658 51.306C113.505 51.3151 113.358 51.3739 113.242 51.4735L112.488 52.0897C112.061 52.4359 112.488 52.5028 112.488 53.0052V55.2047C112.488 56.1202 112.174 56.377 112.174 56.6338C112.174 56.8012 112.275 56.8906 112.488 56.8906H113.984C113.984 56.8906 114.299 56.8905 114.299 56.6338C114.299 56.377 113.984 56.1202 113.984 55.2047V52.6792C114.344 52.1567 114.805 51.7972 115.165 51.7972C115.795 51.7972 115.761 52.5028 115.727 53.53C115.682 54.7804 115.491 55.6401 115.469 56.31C115.469 56.7231 115.637 56.8906 115.828 56.8906H117.245C117.425 56.8906 117.571 56.8012 117.571 56.6338C117.571 56.3323 117.29 56.2542 117.223 55.9192C117.133 55.4615 117.065 53.0633 116.964 52.5028Z" fill="#5E6C84"/>
<path d="M57.3238 14.4697C47.9719 14.4697 42.9293 20.7398 42.9293 30.1471C42.9293 39.5545 47.9696 45.8223 57.3238 45.8223C66.6779 45.8223 71.7183 39.5522 71.7183 30.1471C71.7183 20.742 66.6757 14.4697 57.3238 14.4697ZM57.3238 16.4593C57.43 16.4604 57.536 16.4694 57.6409 16.4861C57.5352 16.4861 57.4317 16.4861 57.3238 16.4861C57.2158 16.4861 57.1124 16.4861 57.0067 16.4861C57.1116 16.4695 57.2176 16.4605 57.3238 16.4593ZM63.5876 38.5072L57.3238 35.2382L51.0622 38.5072L52.2587 31.5851L47.1914 26.6838L54.193 25.6723L57.3238 19.3732L60.4546 25.6723L67.4561 26.6838L62.3911 31.5829L63.5876 38.5072Z" fill="#5E6C84"/>
</g>
<defs>
<clipPath id="clip0_1211_1476">
<rect width="122" height="57" fill="white"/>
</clipPath>
</defs>
</svg>
